<?xml version="1.0" encoding="UTF-8"?>
<svg width="128px" height="128px" viewBox="0 0 128 128" version="1.1" xmlns="http://www.w3.org/2000/svg" xmlns:xlink="http://www.w3.org/1999/xlink">
    <title>Artboard</title>
    <g id="Artboard" stroke="none" stroke-width="1" fill="none" fill-rule="evenodd">
        <path d="M63.5,128 C90.2858104,128 112,106.196048 112,79.3351939 C112,52.4743398 70.7913689,16.6373618 72.268907,0 C60.1983446,3.56806881 43.3542258,33.4492589 36,58.2520089 C30.5576255,55.455513 26.917287,52.6153626 24.982936,50.3001025 C18.1486946,57.3695862 15,69.4198985 15,79.3351939 C15,106.212024 36.7141896,128 63.5,128 Z" id="Oval" fill="#FFDC0A"></path>
        <path d="M64,128 C79.463973,128 92,115.564712 92,100.245853 C92,77.3339677 71.4654455,65.1362893 72.3184572,55.647794 C65.3498851,57.6827082 52.5869258,73.4894939 48.3411871,87.6348123 C45.1991978,86.0399357 43.219757,84.4446429 41.2092366,80.3360978 C37.2636953,84.3679127 36,94.5910358 36,100.245853 C36,115.574045 48.536027,128 64,128 Z" id="Oval-Copy" fill="#FD710C"></path>
    </g>
</svg>