<?xml version="1.0" encoding="UTF-8"?>
<svg width="425px" height="128px" viewBox="0 0 425 128" version="1.1" xmlns="http://www.w3.org/2000/svg" xmlns:xlink="http://www.w3.org/1999/xlink">
    <title>Artboard</title>
    <g id="Artboard" stroke="none" stroke-width="1" fill="none" fill-rule="evenodd">
        <path d="M63.5,128 C90.2858104,128 112,106.196048 112,79.3351939 C112,52.4743398 70.7913689,16.6373618 72.268907,0 C60.1983446,3.56806881 43.3542258,33.4492589 36,58.2520089 C30.5576255,55.455513 26.917287,52.6153626 24.982936,50.3001025 C18.1486946,57.3695862 15,69.4198985 15,79.3351939 C15,106.212024 36.7141896,128 63.5,128 Z" id="Oval" fill="#FFDC0A"></path>
        <path d="M64,128 C79.463973,128 92,115.625246 92,100.380958 C92,77.5806068 71.4654455,65.442306 72.3184572,56 C65.3498851,58.0250084 52.5869258,73.7548477 48.3411871,87.8313075 C45.1991978,86.2441947 43.219757,84.6566677 41.2092366,80.5681227 C37.2636953,84.580311 36,94.7536686 36,100.380958 C36,115.634534 48.536027,128 64,128 Z" id="Oval-Copy" fill="#FD710C"></path>
        <path d="M135.782227,96 L135.782227,82.6494141 L147.635742,82.6494141 L147.635742,77.3173828 L135.782227,77.3173828 L135.782227,70.7138672 L148.804688,70.7138672 L148.804688,65.3818359 L129.732422,65.3818359 L129.732422,96 L135.782227,96 Z M173.044922,96 L173.044922,90.6679688 L166.954102,90.6679688 L166.954102,70.7138672 L173.044922,70.7138672 L173.044922,65.3818359 L154.813477,65.3818359 L154.813477,70.7138672 L160.904297,70.7138672 L160.904297,90.6679688 L154.813477,90.6679688 L154.813477,96 L173.044922,96 Z M185.349609,96 L185.349609,83.9003906 L187.277344,83.9003906 C188.740234,83.9003906 190.011719,85.0556641 191.091797,87.3662109 C191.269531,87.7490234 191.413086,88.0498047 191.522461,88.2685547 L191.522461,88.2685547 L195.213867,96 L201.858398,96 L196.321289,84.9873047 C195.678711,83.7021484 195.135254,82.8374023 194.690918,82.3930664 C194.246582,81.9487305 193.723633,81.6650391 193.12207,81.5419922 C195.049805,81.2958984 196.526367,80.5507812 197.551758,79.3066406 C198.577148,78.0625 199.089844,76.3876953 199.089844,74.2822266 C199.089844,71.1376953 198.231934,68.8681641 196.516113,67.4736328 C194.800293,66.0791016 191.973633,65.3818359 188.036133,65.3818359 L188.036133,65.3818359 L179.299805,65.3818359 L179.299805,96 L185.349609,96 Z M188.200195,78.8144531 L185.349609,78.8144531 L185.349609,70.4677734 L188.200195,70.4677734 C189.868164,70.4677734 191.057617,70.7890625 191.768555,71.4316406 C192.479492,72.0742188 192.834961,73.140625 192.834961,74.6308594 C192.834961,76.1210938 192.476074,77.190918 191.758301,77.840332 C191.040527,78.4897461 189.854492,78.8144531 188.200195,78.8144531 L188.200195,78.8144531 Z M224.375977,96 L224.375977,90.6679688 L211.353516,90.6679688 L211.353516,82.6494141 L223.145508,82.6494141 L223.145508,77.3173828 L211.353516,77.3173828 L211.353516,70.7138672 L224.375977,70.7138672 L224.375977,65.3818359 L205.303711,65.3818359 L205.303711,96 L224.375977,96 Z M238.895508,96.5947266 C242.586914,96.5947266 245.345215,95.8325195 247.17041,94.3081055 C248.995605,92.7836914 249.908203,90.4765625 249.908203,87.3867188 C249.908203,85.1171875 249.327148,83.2373047 248.165039,81.7470703 C247.00293,80.2568359 245.191406,79.0605469 242.730469,78.1582031 L242.730469,78.1582031 L240.125977,77.1738281 C238.321289,76.5039062 237.135254,75.8920898 236.567871,75.3383789 C236.000488,74.784668 235.716797,74.0839844 235.716797,73.2363281 C235.716797,72.1425781 236.106445,71.3017578 236.885742,70.7138672 C237.665039,70.1259766 238.786133,69.8320312 240.249023,69.8320312 C241.561523,69.8320312 242.887695,70.0712891 244.227539,70.5498047 C245.567383,71.0283203 246.886719,71.7255859 248.185547,72.6416016 L248.185547,72.6416016 L248.185547,66.7353516 C246.804688,66.1064453 245.410156,65.6313477 244.001953,65.3100586 C242.59375,64.9887695 241.185547,64.828125 239.777344,64.828125 C236.673828,64.828125 234.233398,65.6210938 232.456055,67.2070312 C230.678711,68.7929688 229.790039,70.9736328 229.790039,73.7490234 C229.790039,75.9091797 230.330078,77.628418 231.410156,78.9067383 C232.490234,80.1850586 234.554688,81.4052734 237.603516,82.5673828 L237.603516,82.5673828 L240.577148,83.6953125 C241.616211,84.0917969 242.40918,84.6352539 242.956055,85.3256836 C243.50293,86.0161133 243.776367,86.8193359 243.776367,87.7353516 C243.776367,88.9521484 243.366211,89.8989258 242.545898,90.5756836 C241.725586,91.2524414 240.570312,91.5908203 239.080078,91.5908203 C237.603516,91.5908203 236.109863,91.3105469 234.599121,90.75 C233.088379,90.1894531 231.526367,89.3349609 229.913086,88.1865234 L229.913086,88.1865234 L229.913086,94.4414062 C231.334961,95.1523438 232.808105,95.6889648 234.33252,96.0512695 C235.856934,96.4135742 237.37793,96.5947266 238.895508,96.5947266 Z M268.098633,96 L268.098633,70.6728516 L275.871094,70.6728516 L275.871094,65.3818359 L254.276367,65.3818359 L254.276367,70.6728516 L262.048828,70.6728516 L262.048828,96 L268.098633,96 Z M284.443359,96 L286.289062,88.4326172 L294.389648,88.4326172 L296.276367,96 L302.326172,96 L294.061523,65.3818359 L286.658203,65.3818359 L278.393555,96 L284.443359,96 Z M293.220703,83.4492188 L287.499023,83.4492188 L290.349609,70.9189453 L293.220703,83.4492188 Z M311.780273,96 L311.780273,83.9003906 L313.708008,83.9003906 C315.170898,83.9003906 316.442383,85.0556641 317.522461,87.3662109 C317.700195,87.7490234 317.84375,88.0498047 317.953125,88.2685547 L317.953125,88.2685547 L321.644531,96 L328.289062,96 L322.751953,84.9873047 C322.109375,83.7021484 321.565918,82.8374023 321.121582,82.3930664 C320.677246,81.9487305 320.154297,81.6650391 319.552734,81.5419922 C321.480469,81.2958984 322.957031,80.5507812 323.982422,79.3066406 C325.007812,78.0625 325.520508,76.3876953 325.520508,74.2822266 C325.520508,71.1376953 324.662598,68.8681641 322.946777,67.4736328 C321.230957,66.0791016 318.404297,65.3818359 314.466797,65.3818359 L314.466797,65.3818359 L305.730469,65.3818359 L305.730469,96 L311.780273,96 Z M314.630859,78.8144531 L311.780273,78.8144531 L311.780273,70.4677734 L314.630859,70.4677734 C316.298828,70.4677734 317.488281,70.7890625 318.199219,71.4316406 C318.910156,72.0742188 319.265625,73.140625 319.265625,74.6308594 C319.265625,76.1210938 318.906738,77.190918 318.188965,77.840332 C317.471191,78.4897461 316.285156,78.8144531 314.630859,78.8144531 L314.630859,78.8144531 Z M343.957031,96 L343.957031,70.6728516 L351.729492,70.6728516 L351.729492,65.3818359 L330.134766,65.3818359 L330.134766,70.6728516 L337.907227,70.6728516 L337.907227,96 L343.957031,96 Z M376.092773,96 L376.092773,90.6679688 L363.070312,90.6679688 L363.070312,82.6494141 L374.862305,82.6494141 L374.862305,77.3173828 L363.070312,77.3173828 L363.070312,70.7138672 L376.092773,70.7138672 L376.092773,65.3818359 L357.020508,65.3818359 L357.020508,96 L376.092773,96 Z M387.638672,96 L387.638672,83.9003906 L389.566406,83.9003906 C391.029297,83.9003906 392.300781,85.0556641 393.380859,87.3662109 C393.558594,87.7490234 393.702148,88.0498047 393.811523,88.2685547 L393.811523,88.2685547 L397.50293,96 L404.147461,96 L398.610352,84.9873047 C397.967773,83.7021484 397.424316,82.8374023 396.97998,82.3930664 C396.535645,81.9487305 396.012695,81.6650391 395.411133,81.5419922 C397.338867,81.2958984 398.81543,80.5507812 399.84082,79.3066406 C400.866211,78.0625 401.378906,76.3876953 401.378906,74.2822266 C401.378906,71.1376953 400.520996,68.8681641 398.805176,67.4736328 C397.089355,66.0791016 394.262695,65.3818359 390.325195,65.3818359 L390.325195,65.3818359 L381.588867,65.3818359 L381.588867,96 L387.638672,96 Z M390.489258,78.8144531 L387.638672,78.8144531 L387.638672,70.4677734 L390.489258,70.4677734 C392.157227,70.4677734 393.34668,70.7890625 394.057617,71.4316406 C394.768555,72.0742188 395.124023,73.140625 395.124023,74.6308594 C395.124023,76.1210938 394.765137,77.190918 394.047363,77.840332 C393.32959,78.4897461 392.143555,78.8144531 390.489258,78.8144531 L390.489258,78.8144531 Z" id="FIRESTARTER" fill="#6B6B6B" fill-rule="nonzero"></path>
    </g>
</svg>