<?xml version="1.0" encoding="UTF-8"?>
<svg width="378px" height="115px" viewBox="0 0 378 115" version="1.1" xmlns="http://www.w3.org/2000/svg" xmlns:xlink="http://www.w3.org/1999/xlink">
    <title>Artboard</title>
    <g id="Artboard" stroke="none" stroke-width="1" fill="none" fill-rule="evenodd">
        <path d="M47,107 C67.4345358,107 84,90.4766926 84,70.1212016 C84,49.7657106 52.5624876,22.6080007 53.6896816,10 C44.4812113,12.7039271 31.6310589,35.3482665 26.0206186,54.1441005 C21.868704,52.0248809 19.0915385,49.8725795 17.6158481,48.1180464 C12.4020969,53.4753895 10,62.6072668 10,70.1212016 C10,90.4887994 26.5654642,107 47,107 Z" id="Oval" fill="#FFDC0A" fill-rule="nonzero"></path>
        <path d="M47,107 C58.5979798,107 68,97.5470629 68,85.9021207 C68,68.4851857 52.5990841,59.2128726 53.2388429,52 C48.0124138,53.5468814 38.4401943,65.5627309 35.2558903,76.3155821 C32.8993983,75.1032043 31.4148178,73.89051 29.9069274,70.767316 C26.9477715,73.832182 26,81.6034968 26,85.9021207 C26,97.5541579 35.4020202,107 47,107 Z" id="Oval-Copy" fill="#FD710C" fill-rule="nonzero"></path>
        <path d="M100.040655,101.400904 L100.040655,87.9522273 L111.876242,87.9522273 L111.876242,82.58102 L100.040655,82.58102 L100.040655,75.9289864 L113.04342,75.9289864 L113.04342,70.5577792 L94,70.5577792 L94,101.400904 L100.040655,101.400904 Z M137.246992,101.400904 L137.246992,96.0296966 L131.165384,96.0296966 L131.165384,75.9289864 L137.246992,75.9289864 L137.246992,70.5577792 L119.043121,70.5577792 L119.043121,75.9289864 L125.124729,75.9289864 L125.124729,96.0296966 L119.043121,96.0296966 L119.043121,101.400904 L137.246992,101.400904 Z M149.533069,101.400904 L149.533069,89.212395 L151.457888,89.212395 C152.918566,89.212395 154.188128,90.3761567 155.266572,92.7036797 C155.444037,93.0893049 155.587375,93.3922961 155.696585,93.6126533 L155.696585,93.6126533 L159.382408,101.400904 L166.016889,101.400904 L160.488155,90.307295 C159.846549,89.0126963 159.303913,88.1415967 158.86025,87.6939961 C158.416586,87.2463955 157.894427,86.9606198 157.293774,86.8366688 C159.218594,86.5887669 160.692923,85.8381751 161.716763,84.5848934 C162.740602,83.3316118 163.252522,81.6445018 163.252522,79.5235636 C163.252522,76.3559285 162.39591,74.0697224 160.682684,72.6649451 C158.969459,71.2601679 156.147074,70.5577792 152.21553,70.5577792 L152.21553,70.5577792 L143.492415,70.5577792 L143.492415,101.400904 L149.533069,101.400904 Z M152.379343,84.0890897 L149.533069,84.0890897 L149.533069,75.6810845 L152.379343,75.6810845 C154.04479,75.6810845 155.232444,76.0047342 155.942306,76.6520335 C156.652168,77.2993329 157.0071,78.3735743 157.0071,79.8747579 C157.0071,81.3759415 156.648755,82.453626 155.932068,83.1078114 C155.21538,83.761997 154.031138,84.0890897 152.379343,84.0890897 L152.379343,84.0890897 Z M188.500411,101.400904 L188.500411,96.0296966 L175.497646,96.0296966 L175.497646,87.9522273 L187.271803,87.9522273 L187.271803,82.58102 L175.497646,82.58102 L175.497646,75.9289864 L188.500411,75.9289864 L188.500411,70.5577792 L169.456991,70.5577792 L169.456991,101.400904 L188.500411,101.400904 Z M202.997982,102 C206.683805,102 209.437934,101.232193 211.260369,99.6965784 C213.082803,98.160964 213.994021,95.836884 213.994021,92.7243383 C213.994021,90.4381321 213.413845,88.5444373 212.253494,87.0432537 C211.093142,85.5420701 209.284358,84.3369916 206.827143,83.428018 L206.827143,83.428018 L204.22659,82.4364105 C202.424632,81.7615665 201.240391,81.1452549 200.673866,80.5874758 C200.107341,80.0296966 199.824079,79.3238649 199.824079,78.4699806 C199.824079,77.3681945 200.213138,76.5211965 200.991256,75.9289864 C201.769374,75.3367764 202.888773,75.0406713 204.34945,75.0406713 C205.659965,75.0406713 206.984131,75.2816871 208.321949,75.7637185 C209.659766,76.2457499 210.977107,76.9481385 212.273971,77.8708845 L212.273971,77.8708845 L212.273971,71.9212395 C210.8952,71.2877125 209.502777,70.8091242 208.096704,70.4854745 C206.690631,70.1618248 205.284558,70 203.878485,70 C200.779662,70 198.342924,70.798795 196.568269,72.3963847 C194.793613,73.9939747 193.906285,76.1906606 193.906285,78.9864428 C193.906285,81.1624704 194.445507,82.8943405 195.523952,84.1820529 C196.602396,85.4697654 198.663728,86.6989455 201.707944,87.8695933 L201.707944,87.8695933 L204.677079,89.0058102 C205.71457,89.4052077 206.50634,89.9526576 207.052388,90.6481601 C207.598436,91.3436626 207.871459,92.1527867 207.871459,93.0755326 C207.871459,94.3012696 207.461924,95.2550032 206.642851,95.9367334 C205.82378,96.6184635 204.670253,96.9593286 203.182273,96.9593286 C201.707944,96.9593286 200.21655,96.6769959 198.708093,96.1123305 C197.199636,95.5476651 195.639987,94.6868947 194.029146,93.5300193 L194.029146,93.5300193 L194.029146,99.8308585 C195.44887,100.54702 196.919786,101.087583 198.441896,101.45255 C199.964004,101.817517 201.4827,102 202.997982,102 Z M232.156939,101.400904 L232.156939,75.8876695 L239.917645,75.8876695 L239.917645,70.5577792 L218.355579,70.5577792 L218.355579,75.8876695 L226.116284,75.8876695 L226.116284,101.400904 L232.156939,101.400904 Z M248.476944,101.400904 L250.319856,93.7779212 L258.40819,93.7779212 L260.292056,101.400904 L266.332711,101.400904 L258.080561,70.5577792 L250.688439,70.5577792 L242.43629,101.400904 L248.476944,101.400904 Z M257.241013,88.7579084 L251.527987,88.7579084 L254.374262,76.1355713 L257.241013,88.7579084 Z M275.772513,101.400904 L275.772513,89.212395 L277.697332,89.212395 C279.15801,89.212395 280.427572,90.3761567 281.506016,92.7036797 C281.683481,93.0893049 281.826819,93.3922961 281.936029,93.6126533 L281.936029,93.6126533 L285.621852,101.400904 L292.256333,101.400904 L286.727599,90.307295 C286.085992,89.0126963 285.543357,88.1415967 285.099693,87.6939961 C284.65603,87.2463955 284.133871,86.9606198 283.533218,86.8366688 C285.458038,86.5887669 286.932366,85.8381751 287.956207,84.5848934 C288.980046,83.3316118 289.491966,81.6445018 289.491966,79.5235636 C289.491966,76.3559285 288.635354,74.0697224 286.922128,72.6649451 C285.208903,71.2601679 282.386518,70.5577792 278.454974,70.5577792 L278.454974,70.5577792 L269.731859,70.5577792 L269.731859,101.400904 L275.772513,101.400904 Z M278.618787,84.0890897 L275.772513,84.0890897 L275.772513,75.6810845 L278.618787,75.6810845 C280.284234,75.6810845 281.471888,76.0047342 282.18175,76.6520335 C282.891612,77.2993329 283.246544,78.3735743 283.246544,79.8747579 C283.246544,81.3759415 282.888199,82.453626 282.171512,83.1078114 C281.454824,83.761997 280.270582,84.0890897 278.618787,84.0890897 L278.618787,84.0890897 Z M307.900605,101.400904 L307.900605,75.8876695 L315.661311,75.8876695 L315.661311,70.5577792 L294.099245,70.5577792 L294.099245,75.8876695 L301.859951,75.8876695 L301.859951,101.400904 L307.900605,101.400904 Z M339.987743,101.400904 L339.987743,96.0296966 L326.984978,96.0296966 L326.984978,87.9522273 L338.759136,87.9522273 L338.759136,82.58102 L326.984978,82.58102 L326.984978,75.9289864 L339.987743,75.9289864 L339.987743,70.5577792 L320.944324,70.5577792 L320.944324,101.400904 L339.987743,101.400904 Z M351.51618,101.400904 L351.51618,89.212395 L353.440998,89.212395 C354.901677,89.212395 356.171238,90.3761567 357.249682,92.7036797 C357.427148,93.0893049 357.570485,93.3922961 357.679695,93.6126533 L357.679695,93.6126533 L361.365519,101.400904 L368,101.400904 L362.471266,90.307295 C361.829658,89.0126963 361.287023,88.1415967 360.843359,87.6939961 C360.399696,87.2463955 359.877537,86.9606198 359.276885,86.8366688 C361.201704,86.5887669 362.676033,85.8381751 363.699873,84.5848934 C364.723713,83.3316118 365.235632,81.6445018 365.235632,79.5235636 C365.235632,76.3559285 364.37902,74.0697224 362.665795,72.6649451 C360.952569,71.2601679 358.130184,70.5577792 354.198639,70.5577792 L354.198639,70.5577792 L345.475525,70.5577792 L345.475525,101.400904 L351.51618,101.400904 Z M354.362454,84.0890897 L351.51618,84.0890897 L351.51618,75.6810845 L354.362454,75.6810845 C356.027901,75.6810845 357.215555,76.0047342 357.925416,76.6520335 C358.635279,77.2993329 358.990209,78.3735743 358.990209,79.8747579 C358.990209,81.3759415 358.631866,82.453626 357.915178,83.1078114 C357.19849,83.761997 356.014249,84.0890897 354.362454,84.0890897 L354.362454,84.0890897 Z" id="FIRESTARTER" fill="#6B6B6B" fill-rule="nonzero"></path>
    </g>
</svg>